<svg width="633" height="90" viewBox="0 0 633 90" xmlns="http://www.w3.org/2000/svg"><title>logo-inclojure-light</title><g fill="#F1F1F1" fill-rule="evenodd"><path d="M105.058 8.427h16.663v63.075h-16.66V8.427zm30.613 0h17.06l13.95 28.14 6.01 14.17h.39c-.19-1.683-.42-3.527-.68-5.533-.25-2.005-.48-4.06-.67-6.162-.19-2.102-.37-4.204-.53-6.307-.16-2.102-.24-4.124-.24-6.065V8.427h15.89v63.075H169.8l-13.95-28.238-6.008-14.07h-.39c.387 3.622.84 7.568 1.356 11.838s.776 8.345.776 12.227V71.5h-15.89V8.427zm85.14-8.33h-11.68l-15.52 76.048h11.83L220.81.097zm4.17 40.353c0-5.305.84-10.012 2.52-14.12 1.68-4.107 3.94-7.568 6.78-10.383 2.85-2.814 6.12-4.965 9.84-6.453 3.72-1.488 7.61-2.23 11.68-2.23 4.01 0 7.64.823 10.9 2.473 3.26 1.65 6.02 3.607 8.28 5.87l-9.1 10.287c-1.55-1.36-3.07-2.41-4.55-3.154-1.48-.744-3.26-1.116-5.33-1.116-1.87 0-3.66.42-5.37 1.262-1.71.84-3.2 2.037-4.46 3.59-1.26 1.553-2.26 3.46-3 5.725-.74 2.27-1.11 4.82-1.11 7.67 0 5.95 1.24 10.52 3.73 13.69s5.76 4.76 9.83 4.76c2.46 0 4.57-.47 6.35-1.4 1.78-.94 3.34-2.15 4.7-3.64l9.11 10.1c-2.71 3.11-5.81 5.44-9.3 6.99-3.48 1.55-7.17 2.33-11.04 2.33-4.13 0-8.04-.66-11.72-1.99-3.68-1.33-6.91-3.33-9.69-6.02-2.78-2.68-4.97-6.05-6.59-10.09-1.61-4.04-2.42-8.75-2.42-14.12zm58.13-36.487h16.67v51.042c0 1.682.31 2.814.92 3.397.62.582 1.21.873 1.79.873h.83c.23 0 .54-.065.92-.194l1.94 12.23c-.9.39-2.01.71-3.34.97s-2.92.39-4.79.39c-2.84 0-5.21-.43-7.12-1.31-1.9-.87-3.44-2.12-4.6-3.73-1.16-1.61-1.98-3.54-2.47-5.77-.48-2.23-.72-4.7-.72-7.42V3.97zm26.35 43.28c0-4.012.67-7.602 1.99-10.772s3.1-5.83 5.33-8c2.23-2.16 4.8-3.81 7.71-4.95 2.91-1.13 5.91-1.69 9.01-1.69 3.1 0 6.09.57 8.96 1.7 2.88 1.14 5.43 2.79 7.66 4.95 2.23 2.17 4.02 4.84 5.38 8.01 1.36 3.17 2.04 6.76 2.04 10.77s-.68 7.61-2.03 10.77c-1.36 3.17-3.15 5.84-5.38 8.01s-4.78 3.82-7.65 4.95c-2.87 1.13-5.86 1.7-8.96 1.7-3.1 0-6.1-.56-9.01-1.7-2.9-1.13-5.47-2.78-7.7-4.95-2.22-2.16-4-4.83-5.32-8-1.32-3.17-1.99-6.76-1.99-10.77zm17.05 0c0 3.687.54 6.614 1.6 8.78 1.07 2.168 2.86 3.252 5.38 3.252s4.31-1.084 5.38-3.25c1.07-2.168 1.6-5.095 1.6-8.783 0-3.687-.53-6.615-1.6-8.782-1.06-2.167-2.85-3.25-5.37-3.25s-4.31 1.083-5.37 3.25c-1.06 2.167-1.6 5.095-1.6 8.782zm50.58 24.065c-.52 2.523-1.26 4.9-2.23 7.132-.97 2.232-2.23 4.19-3.78 5.87-1.55 1.683-3.42 3.01-5.61 3.98-2.19.97-4.78 1.455-7.75 1.455-1.74 0-3.42-.162-5.04-.485-1.61-.324-3.29-.938-5.04-1.844l4.65-11.062c1.36.776 2.72 1.164 4.07 1.164 1.55 0 2.7-.534 3.44-1.6.75-1.068 1.41-2.864 1.99-5.387l9.5-47.54h15.5l-9.69 48.33zm4.46-54.536c-1.03 0-2.03-.145-3-.436-.96-.292-1.84-.728-2.61-1.31-.77-.583-1.39-1.327-1.84-2.232-.45-.906-.68-1.973-.68-3.203 0-1.16.25-2.28.73-3.34.49-1.07 1.15-1.99 1.99-2.76.84-.77 1.83-1.4 2.96-1.89 1.13-.48 2.34-.72 3.64-.72 1.03 0 2.04.16 3 .49.97.33 1.84.78 2.62 1.36.77.58 1.39 1.33 1.84 2.23.45.91.68 1.94.68 3.11 0 2.52-.89 4.61-2.67 6.26-1.77 1.65-3.98 2.48-6.63 2.48zm11.24 6.21h16.67v27.754c0 3.105.39 5.175 1.16 6.21.78 1.035 2 1.553 3.68 1.553 1.55 0 2.83-.33 3.83-.98 1-.65 2.05-1.75 3.15-3.3V22.98h16.67V71.5h-13.57l-1.16-6.406h-.39c-1.94 2.33-4.09 4.173-6.44 5.53-2.35 1.36-5.18 2.04-8.47 2.04-2.65 0-4.93-.47-6.83-1.408-1.91-.94-3.473-2.266-4.7-3.98-1.23-1.715-2.13-3.785-2.713-6.21-.58-2.427-.87-5.16-.87-8.2V22.982zm56.39 0h13.57l1.16 8.346h.39c1.81-3.3 3.96-5.71 6.44-7.23 2.49-1.52 4.93-2.28 7.32-2.28 1.49 0 2.68.08 3.59.243.91.17 1.71.41 2.42.73l-2.71 14.36c-.9-.19-1.76-.37-2.57-.53-.8-.16-1.76-.24-2.85-.24-1.75 0-3.57.6-5.48 1.8-1.9 1.2-3.44 3.32-4.6 6.36v26.97h-16.67V22.99zm37.01 24.26c0-3.946.67-7.488 1.99-10.625 1.33-3.138 3.07-5.807 5.23-8.006 2.17-2.2 4.64-3.88 7.41-5.04 2.78-1.16 5.66-1.74 8.63-1.74 3.55 0 6.65.62 9.3 1.85 2.65 1.23 4.84 2.91 6.59 5.05 1.75 2.14 3.05 4.63 3.93 7.47.87 2.85 1.31 5.89 1.31 9.12 0 1.49-.08 2.82-.24 3.98-.16 1.17-.3 2.04-.43 2.62H502.3c.777 3.11 2.16 5.24 4.167 6.41s4.36 1.75 7.078 1.75c1.68 0 3.31-.24 4.89-.72 1.58-.48 3.24-1.21 4.99-2.18l5.42 9.9c-2.65 1.88-5.57 3.29-8.765 4.22-3.198.94-6.15 1.41-8.866 1.41-3.55 0-6.846-.56-9.88-1.7-3.037-1.13-5.67-2.78-7.897-4.95-2.23-2.16-3.99-4.83-5.28-8s-1.94-6.76-1.94-10.77zm30.23-5.434c0-2.07-.47-3.817-1.4-5.24-.94-1.423-2.66-2.135-5.18-2.135-1.87 0-3.5.55-4.89 1.65-1.39 1.1-2.34 3.008-2.86 5.725h14.34z"/><path d="M82.582 88.97c-4.07-6.665-7.218-13.603-9.446-20.816-2.228-7.213-3.342-15.09-3.342-23.63 0-8.538 1.114-16.398 3.342-23.58 2.228-7.18 5.377-14.134 9.446-20.862l10.463 4.27c-3.488 6.34-6.007 12.938-7.557 19.795-1.55 6.858-2.325 13.65-2.325 20.378s.775 13.52 2.325 20.378c1.55 6.858 4.07 13.456 7.557 19.796l-10.463 4.27z" fill-opacity=".85"/><path d="M47.705 88.97c-4.068-6.665-7.217-13.603-9.445-20.816-2.228-7.213-3.343-15.09-3.343-23.63 0-8.538 1.115-16.398 3.343-23.58 2.228-7.18 5.377-14.134 9.445-20.862l10.463 4.27c-3.487 6.34-6.006 12.938-7.556 19.795-1.55 6.858-2.325 13.65-2.325 20.378s.775 13.52 2.325 20.378c1.55 6.858 4.07 13.456 7.556 19.796l-10.463 4.27z" fill-opacity=".5"/><path d="M12.83 88.97c-4.07-6.666-7.22-13.604-9.448-20.817C1.155 60.94.04 53.063.04 44.523c0-8.537 1.115-16.397 3.343-23.58C5.613 13.766 8.76 6.81 12.83.083l10.462 4.27c-3.488 6.34-6.007 12.94-7.557 19.796C14.185 31 13.41 37.8 13.41 44.52s.775 13.52 2.325 20.378c1.55 6.86 4.07 13.457 7.557 19.797L12.83 88.97z" fill-opacity=".25"/><path d="M539.06 84.7c3.486-6.34 6.005-12.94 7.555-19.797 1.55-6.857 2.325-13.65 2.325-20.378s-.775-13.52-2.325-20.378c-1.55-6.857-4.07-13.456-7.556-19.796L549.52.09c4.068 6.728 7.217 13.682 9.445 20.863 2.228 7.18 3.343 15.04 3.343 23.58s-1.115 16.416-3.343 23.63c-2.228 7.21-5.377 14.15-9.445 20.814l-10.46-4.27z" fill-opacity=".85"/><path d="M573.935 84.7c3.488-6.34 6.006-12.94 7.557-19.797 1.55-6.857 2.325-13.65 2.325-20.378s-.775-13.52-2.325-20.378c-1.55-6.857-4.07-13.456-7.557-19.796L584.398.09c4.07 6.728 7.217 13.682 9.446 20.863 2.228 7.18 3.342 15.04 3.342 23.58s-1.114 16.416-3.342 23.63c-2.23 7.21-5.377 14.15-9.446 20.814l-10.463-4.27z" fill-opacity=".5"/><path d="M608.81 84.7c3.49-6.34 6.008-12.94 7.558-19.797 1.55-6.857 2.325-13.65 2.325-20.378s-.775-13.52-2.325-20.378c-1.55-6.857-4.07-13.456-7.557-19.796L619.28.09c4.07 6.728 7.218 13.682 9.446 20.863 2.23 7.18 3.343 15.04 3.343 23.58s-1.12 16.416-3.35 23.63c-2.23 7.21-5.38 14.15-9.45 20.814L608.81 84.7z" fill-opacity=".25"/></g></svg>